<?xml version="1.0" standalone="no"?>
<!DOCTYPE svg PUBLIC "-//W3C//DTD SVG 20010904//EN"
 "http://www.w3.org/TR/2001/REC-SVG-20010904/DTD/svg10.dtd">
<svg version="1.0" xmlns="http://www.w3.org/2000/svg"
 width="700.000000pt" height="700.000000pt" viewBox="0 0 700.000000 700.000000"
 preserveAspectRatio="xMidYMid meet">
<metadata>
Created by potrace 1.11, written by Peter Selinger 2001-2013
</metadata>
<g transform="translate(0.000000,700.000000) scale(0.100000,-0.100000)"
fill="#000000" stroke="none">
<path d="M1089 6086 c-2 -2 -32 -6 -66 -10 -146 -15 -326 -79 -448 -158 -107
-69 -269 -232 -399 -402 l-106 -140 68 -42 c37 -23 109 -68 160 -101 272 -169
367 -278 440 -498 26 -77 39 -131 67 -275 3 -14 7 -56 10 -95 3 -38 7 -88 9
-111 3 -22 7 -92 10 -155 17 -350 22 -415 32 -494 13 -104 16 -125 30 -190 35
-161 139 -402 248 -575 77 -123 204 -264 336 -374 37 -30 181 -134 208 -151
10 -5 46 -28 82 -51 36 -23 143 -83 238 -134 154 -83 172 -95 173 -119 0 -14
2 -57 4 -96 5 -112 15 -374 21 -585 3 -107 7 -231 8 -275 l2 -80 70 0 69 0 -4
195 c-2 107 -4 229 -6 270 -2 41 -6 180 -10 308 -4 128 -8 244 -10 257 -1 14
2 28 6 31 11 6 97 10 414 19 132 4 263 8 292 9 28 2 57 0 63 -4 8 -5 13 -81
16 -256 3 -137 6 -346 9 -464 2 -118 4 -250 4 -292 l1 -78 68 0 67 0 0 547 -1
548 91 64 c435 309 694 463 903 540 92 34 148 44 332 58 256 19 732 0 895 -37
266 -60 551 -206 865 -444 86 -65 320 -256 340 -276 3 -3 61 -53 130 -112 69
-58 136 -115 150 -127 13 -12 26 -18 28 -12 3 10 -141 310 -221 456 -186 344
-437 709 -671 975 -90 102 -348 351 -451 435 -60 49 -126 103 -145 120 -261
223 -603 460 -995 687 -253 146 -405 227 -1175 620 -312 160 -522 269 -555
288 -16 10 -59 33 -95 52 -80 43 -237 134 -350 202 -47 29 -96 58 -110 66 -24
15 -310 205 -430 287 -114 78 -266 139 -409 165 -57 10 -294 21 -302 14z"/>
</g>
</svg>
