<?xml version="1.0" encoding="UTF-8" standalone="no"?>
<svg width="512px" height="375px" viewBox="0 0 512 375" version="1.1" xmlns="http://www.w3.org/2000/svg" xmlns:xlink="http://www.w3.org/1999/xlink" xmlns:sketch="http://www.bohemiancoding.com/sketch/ns">
    <!-- Generator: Sketch 3.3.2 (12043) - http://www.bohemiancoding.com/sketch -->
    <title>ux-principles</title>
    <desc>Created with Sketch.</desc>
    <defs></defs>
    <g id="UX-Principles" stroke="none" stroke-width="1" fill="none" fill-rule="evenodd" sketch:type="MSPage">
        <g id="ux-principles" sketch:type="MSArtboardGroup">
            <path d="M51.064,66.134 C53.3680115,66.134 55.1679935,65.2820085 56.464,63.578 C57.7600065,61.8739915 58.408,59.6780134 58.408,56.99 C58.408,54.397987 57.7960061,52.3100079 56.572,50.726 C55.3479939,49.1419921 53.6080113,48.35 51.352,48.35 C49.0479885,48.35 47.2600064,49.1779917 45.988,50.834 C44.7159936,52.4900083 44.08,54.6379868 44.08,57.278 C44.08,59.9180132 44.679994,62.0539918 45.88,63.686 C47.080006,65.3180082 48.8079887,66.134 51.064,66.134 L51.064,66.134 Z M48.976,81.902 C47.4879926,81.902 46.2160053,81.7580014 45.16,81.47 C44.1039947,82.6220058 43.3600022,83.701995 42.928,84.71 C42.4959978,85.718005 42.28,86.8459938 42.28,88.094 C42.28,90.4460118 43.1439914,92.125995 44.872,93.134 C46.6000086,94.142005 48.9039856,94.646 51.784,94.646 C55.7200197,94.646 58.7199897,93.9380071 60.784,92.522 C62.8480103,91.1059929 63.88,89.3900101 63.88,87.374 C63.88,85.7899921 63.3280055,84.4820052 62.224,83.45 C61.1199945,82.4179948 59.272013,81.902 56.68,81.902 L48.976,81.902 Z M69.64,50.87 L62.656,50.87 C63.7120053,52.6940091 64.24,54.805988 64.24,57.206 C64.24,59.0780094 63.9160032,60.7459927 63.268,62.21 C62.6199968,63.6740073 61.7080059,64.909995 60.532,65.918 C59.3559941,66.926005 57.9760079,67.6939974 56.392,68.222 C54.8079921,68.7500026 53.0800094,69.014 51.208,69.014 C50.2479952,69.014 49.3360043,68.9540006 48.472,68.834 C47.6079957,68.7139994 46.7680041,68.5340012 45.952,68.294 C45.0399954,69.494006 44.584,70.8619923 44.584,72.398 C44.584,73.7420067 44.9919959,74.713997 45.808,75.314 C46.6240041,75.914003 48.135989,76.214 50.344,76.214 L57.688,76.214 C61.6720199,76.214 64.5999906,77.0299918 66.472,78.662 C68.3440094,80.2940082 69.28,82.5739854 69.28,85.502 C69.28,87.0860079 68.9080037,88.6219926 68.164,90.11 C67.4199963,91.5980074 66.3040074,92.9179942 64.816,94.07 C63.3279926,95.2220058 61.4680112,96.1579964 59.236,96.878 C57.0039888,97.5980036 54.4240146,97.958 51.496,97.958 C46.2639738,97.958 42.4360121,97.154008 40.012,95.546 C37.5879879,93.937992 36.376,91.838013 36.376,89.246 C36.376,87.6619921 36.9039947,86.2220065 37.96,84.926 C39.0160053,83.6299935 40.8879866,82.3100067 43.576,80.966 C42.0399923,80.2939966 40.9240035,79.3940056 40.228,78.266 C39.5319965,77.1379944 39.184,75.9500062 39.184,74.702 C39.184,73.3579933 39.5319965,72.0980059 40.228,70.922 C40.9240035,69.7459941 42.0879918,68.5340062 43.72,67.286 C42.0399916,66.3259952 40.7080049,65.0180083 39.724,63.362 C38.7399951,61.7059917 38.248,59.6540122 38.248,57.206 C38.248,55.3339906 38.5719968,53.6660073 39.22,52.202 C39.8680032,50.7379927 40.7799941,49.502005 41.956,48.494 C43.1320059,47.485995 44.5119921,46.7180026 46.096,46.19 C47.6800079,45.6619974 49.4079906,45.398 51.28,45.398 C55.1680194,45.398 58.2879882,46.3819902 60.64,48.35 L68.56,45.614 L69.64,46.334 L69.64,50.87 Z M110.824,78.158 L110.824,80.75 L100.816,81.47 L100.096,75.062 C98.1279902,77.462012 96.0520109,79.1899947 93.868,80.246 C91.6839891,81.3020053 89.5120108,81.83 87.352,81.83 C85.9119928,81.83 84.6040059,81.6020023 83.428,81.146 C82.2519941,80.6899977 81.2560041,79.9460052 80.44,78.914 C79.6239959,77.8819948 79.012002,76.5500082 78.604,74.918 C78.195998,73.2859918 77.992,71.270012 77.992,68.87 L78.208,50.798 L73.096,49.718 L73.096,47.126 L83.68,46.118 L84.4,46.838 L84.04,56.918 L84.04,68.222 C84.04,71.3900158 84.5079953,73.5859939 85.444,74.81 C86.3800047,76.0340061 87.8319902,76.646 89.8,76.646 C91.4800084,76.646 93.1599916,76.2620038 94.84,75.494 C96.5200084,74.7259962 98.1999916,73.5740077 99.88,72.038 L100.096,50.798 L94.984,49.718 L94.984,47.126 L105.424,46.118 L106.144,46.838 L105.928,56.918 L105.928,77.15 L110.824,78.158 Z M124.288,37.694 C122.895993,37.694 121.744005,37.2620043 120.832,36.398 C119.919995,35.5339957 119.464,34.4300067 119.464,33.086 C119.464,31.693993 119.919995,30.5780042 120.832,29.738 C121.744005,28.8979958 122.895993,28.478 124.288,28.478 C125.632007,28.478 126.771995,28.8979958 127.708,29.738 C128.644005,30.5780042 129.112,31.693993 129.112,33.086 C129.112,34.4300067 128.644005,35.5339957 127.708,36.398 C126.771995,37.2620043 125.632007,37.694 124.288,37.694 L124.288,37.694 Z M132.496,78.158 L132.496,80.75 L115.792,80.75 L115.792,78.158 L121.12,77.15 C121.168,75.3259909 121.204,73.3580106 121.228,71.246 C121.252,69.1339894 121.264,67.2620082 121.264,65.63 L121.264,62.03 C121.264,60.0619902 121.24,58.4180066 121.192,57.098 C121.144,55.7779934 121.096,54.3980072 121.048,52.958 L115.36,52.31 L115.36,49.79 L126.52,45.398 L127.6,46.118 L127.384,55.91 L127.384,65.63 C127.384,67.2140079 127.396,69.0739893 127.42,71.21 C127.444,73.3460107 127.48,75.3259909 127.528,77.15 L132.496,78.158 Z M162.52,53.318 C160.839992,51.8779928 159.364006,50.8820028 158.092,50.33 C156.819994,49.7779972 155.584006,49.502 154.384,49.502 C153.039993,49.502 151.768006,49.7899971 150.568,50.366 C149.367994,50.9420029 148.312005,51.8179941 147.4,52.994 C146.487995,54.1700059 145.768003,55.657991 145.24,57.458 C144.711997,59.258009 144.448,61.3819878 144.448,63.83 C144.448,68.5340235 145.395991,72.0259886 147.292,74.306 C149.188009,76.5860114 151.575986,77.726 154.456,77.726 C156.040008,77.726 157.443994,77.4020032 158.668,76.754 C159.892006,76.1059968 161.175993,75.0380074 162.52,73.55 L162.52,53.318 Z M174.4,78.158 L174.4,80.75 L163.24,81.47 L162.736,76.574 C161.487994,78.2540084 160.060008,79.5499954 158.452,80.462 C156.843992,81.3740046 154.912011,81.83 152.656,81.83 C150.447989,81.83 148.444009,81.3980043 146.644,80.534 C144.843991,79.6699957 143.296006,78.4460079 142,76.862 C140.703994,75.2779921 139.708003,73.3940109 139.012,71.21 C138.315997,69.0259891 137.968,66.6140132 137.968,63.974 C137.968,61.2379863 138.351996,58.7300114 139.12,56.45 C139.888004,54.1699886 140.955993,52.2140082 142.324,50.582 C143.692007,48.9499918 145.311991,47.6780046 147.184,46.766 C149.056009,45.8539954 151.095989,45.398 153.304,45.398 C155.032009,45.398 156.663992,45.7459965 158.2,46.442 C159.736008,47.1380035 161.247993,48.3499914 162.736,50.078 L162.736,34.742 L156.616,34.022 L156.616,31.502 L167.848,28.262 L168.856,28.838 L168.568,39.062 L168.568,77.222 L174.4,78.158 Z M186.568,37.694 C185.175993,37.694 184.024005,37.2620043 183.112,36.398 C182.199995,35.5339957 181.744,34.4300067 181.744,33.086 C181.744,31.693993 182.199995,30.5780042 183.112,29.738 C184.024005,28.8979958 185.175993,28.478 186.568,28.478 C187.912007,28.478 189.051995,28.8979958 189.988,29.738 C190.924005,30.5780042 191.392,31.693993 191.392,33.086 C191.392,34.4300067 190.924005,35.5339957 189.988,36.398 C189.051995,37.2620043 187.912007,37.694 186.568,37.694 L186.568,37.694 Z M194.776,78.158 L194.776,80.75 L178.072,80.75 L178.072,78.158 L183.4,77.15 C183.448,75.3259909 183.484,73.3580106 183.508,71.246 C183.532,69.1339894 183.544,67.2620082 183.544,65.63 L183.544,62.03 C183.544,60.0619902 183.52,58.4180066 183.472,57.098 C183.424,55.7779934 183.376,54.3980072 183.328,52.958 L177.64,52.31 L177.64,49.79 L188.8,45.398 L189.88,46.118 L189.664,55.91 L189.664,65.63 C189.664,67.2140079 189.676,69.0739893 189.7,71.21 C189.724,73.3460107 189.76,75.3259909 189.808,77.15 L194.776,78.158 Z M238.48,78.158 L238.48,80.75 L221.776,80.75 L221.776,78.158 L227.104,77.15 C227.152,75.3739911 227.188,73.4300106 227.212,71.318 C227.236,69.2059894 227.248,67.3100084 227.248,65.63 L227.248,59.294 C227.248,55.9819834 226.792005,53.7020062 225.88,52.454 C224.967995,51.2059938 223.432011,50.582 221.272,50.582 C219.591992,50.582 217.996008,50.9179966 216.484,51.59 C214.971992,52.2620034 213.304009,53.3659923 211.48,54.902 L211.48,65.63 C211.48,67.2140079 211.492,69.0739893 211.516,71.21 C211.54,73.3460107 211.576,75.3259909 211.624,77.15 L216.592,78.158 L216.592,80.75 L199.888,80.75 L199.888,78.158 L205.216,77.15 C205.264,75.3259909 205.3,73.3580106 205.324,71.246 C205.348,69.1339894 205.36,67.2620082 205.36,65.63 L205.36,61.958 C205.36,59.9899902 205.336,58.3580065 205.288,57.062 C205.24,55.7659935 205.192,54.3980072 205.144,52.958 L199.456,52.31 L199.456,49.79 L209.536,45.398 L210.616,46.118 L211.192,51.95 C212.968009,49.9819902 214.995989,48.398006 217.276,47.198 C219.556011,45.997994 221.823989,45.398 224.08,45.398 C227.200016,45.398 229.515992,46.4299897 231.028,48.494 C232.540008,50.5580103 233.296,53.9659762 233.296,58.718 L233.296,65.63 C233.296,67.3100084 233.308,69.1939896 233.332,71.282 C233.356,73.3700104 233.392,75.3259909 233.44,77.15 L238.48,78.158 Z M257.704,66.134 C260.008012,66.134 261.807994,65.2820085 263.104,63.578 C264.400006,61.8739915 265.048,59.6780134 265.048,56.99 C265.048,54.397987 264.436006,52.3100079 263.212,50.726 C261.987994,49.1419921 260.248011,48.35 257.992,48.35 C255.687988,48.35 253.900006,49.1779917 252.628,50.834 C251.355994,52.4900083 250.72,54.6379868 250.72,57.278 C250.72,59.9180132 251.319994,62.0539918 252.52,63.686 C253.720006,65.3180082 255.447989,66.134 257.704,66.134 L257.704,66.134 Z M255.616,81.902 C254.127993,81.902 252.856005,81.7580014 251.8,81.47 C250.743995,82.6220058 250.000002,83.701995 249.568,84.71 C249.135998,85.718005 248.92,86.8459938 248.92,88.094 C248.92,90.4460118 249.783991,92.125995 251.512,93.134 C253.240009,94.142005 255.543986,94.646 258.424,94.646 C262.36002,94.646 265.35999,93.9380071 267.424,92.522 C269.48801,91.1059929 270.52,89.3900101 270.52,87.374 C270.52,85.7899921 269.968006,84.4820052 268.864,83.45 C267.759994,82.4179948 265.912013,81.902 263.32,81.902 L255.616,81.902 Z M276.28,50.87 L269.296,50.87 C270.352005,52.6940091 270.88,54.805988 270.88,57.206 C270.88,59.0780094 270.556003,60.7459927 269.908,62.21 C269.259997,63.6740073 268.348006,64.909995 267.172,65.918 C265.995994,66.926005 264.616008,67.6939974 263.032,68.222 C261.447992,68.7500026 259.720009,69.014 257.848,69.014 C256.887995,69.014 255.976004,68.9540006 255.112,68.834 C254.247996,68.7139994 253.408004,68.5340012 252.592,68.294 C251.679995,69.494006 251.224,70.8619923 251.224,72.398 C251.224,73.7420067 251.631996,74.713997 252.448,75.314 C253.264004,75.914003 254.775989,76.214 256.984,76.214 L264.328,76.214 C268.31202,76.214 271.239991,77.0299918 273.112,78.662 C274.984009,80.2940082 275.92,82.5739854 275.92,85.502 C275.92,87.0860079 275.548004,88.6219926 274.804,90.11 C274.059996,91.5980074 272.944007,92.9179942 271.456,94.07 C269.967993,95.2220058 268.108011,96.1579964 265.876,96.878 C263.643989,97.5980036 261.064015,97.958 258.136,97.958 C252.903974,97.958 249.076012,97.154008 246.652,95.546 C244.227988,93.937992 243.016,91.838013 243.016,89.246 C243.016,87.6619921 243.543995,86.2220065 244.6,84.926 C245.656005,83.6299935 247.527987,82.3100067 250.216,80.966 C248.679992,80.2939966 247.564003,79.3940056 246.868,78.266 C246.171997,77.1379944 245.824,75.9500062 245.824,74.702 C245.824,73.3579933 246.171997,72.0980059 246.868,70.922 C247.564003,69.7459941 248.727992,68.5340062 250.36,67.286 C248.679992,66.3259952 247.348005,65.0180083 246.364,63.362 C245.379995,61.7059917 244.888,59.6540122 244.888,57.206 C244.888,55.3339906 245.211997,53.6660073 245.86,52.202 C246.508003,50.7379927 247.419994,49.502005 248.596,48.494 C249.772006,47.485995 251.151992,46.7180026 252.736,46.19 C254.320008,45.6619974 256.047991,45.398 257.92,45.398 C261.808019,45.398 264.927988,46.3819902 267.28,48.35 L275.2,45.614 L276.28,46.334 L276.28,50.87 Z" id="guiding" fill="#F6A623" sketch:type="MSShapeGroup"></path>
            <path d="M167.544,329.554 C168.888007,330.850006 170.207994,331.785997 171.504,332.362 C172.800006,332.938003 174.119993,333.226 175.464,333.226 C176.808007,333.226 178.079994,332.938003 179.28,332.362 C180.480006,331.785997 181.523996,330.922006 182.412,329.77 C183.300004,328.617994 183.995997,327.178009 184.5,325.45 C185.004003,323.721991 185.256,321.706012 185.256,319.402 C185.256,314.745977 184.416008,311.182012 182.736,308.71 C181.055992,306.237988 178.896013,305.002 176.256,305.002 C175.151994,305.002 173.880007,305.277997 172.44,305.83 C170.999993,306.382003 169.368009,307.425992 167.544,308.962 L167.544,329.554 Z M167.112,306.226 C168.792008,304.401991 170.543991,303.058004 172.368,302.194 C174.192009,301.329996 176.06399,300.898 177.984,300.898 C179.90401,300.898 181.703992,301.305996 183.384,302.122 C185.064008,302.938004 186.515994,304.125992 187.74,305.686 C188.964006,307.246008 189.935996,309.129989 190.656,311.338 C191.376004,313.546011 191.736,316.041986 191.736,318.826 C191.736,321.610014 191.364004,324.141989 190.62,326.422 C189.875996,328.702011 188.832007,330.645992 187.488,332.254 C186.143993,333.862008 184.572009,335.109996 182.772,335.998 C180.971991,336.886004 179.016011,337.33 176.904,337.33 C175.223992,337.33 173.592008,336.994003 172.008,336.322 C170.423992,335.649997 168.864008,334.402009 167.328,332.578 L167.328,338.266 C167.328,340.18601 167.34,342.10599 167.364,344.026 C167.388,345.94601 167.424,347.88999 167.472,349.858 L174.024,350.938 L174.024,353.458 L155.52,353.458 L155.52,350.938 L161.28,349.93 C161.328,347.91399 161.364,345.958009 161.388,344.062 C161.412,342.165991 161.424,340.23401 161.424,338.266 L161.424,317.458 C161.424,315.48999 161.4,313.858006 161.352,312.562 C161.304,311.265994 161.256,309.898007 161.208,308.458 L155.52,307.81 L155.52,305.29 L165.6,300.898 L166.68,301.618 L167.112,306.226 Z M209.376,310.186 C210.624006,307.257985 212.171991,304.978008 214.02,303.346 C215.868009,301.713992 217.77599,300.898 219.744,300.898 C220.848006,300.898 221.891995,301.173997 222.876,301.726 C223.860005,302.278003 224.447999,303.177994 224.64,304.426 C224.64,305.674006 224.232004,306.645997 223.416,307.342 C222.599996,308.038003 221.568006,308.386 220.32,308.386 C218.783992,308.386 217.416006,307.786006 216.216,306.586 L215.64,306.01 C214.151993,307.114006 212.916005,308.433992 211.932,309.97 C210.947995,311.506008 210.120003,313.353989 209.448,315.514 L209.448,321.13 C209.448,322.714008 209.46,324.561989 209.484,326.674 C209.508,328.786011 209.544,330.753991 209.592,332.578 L215.496,333.658 L215.496,336.25 L198,336.25 L198,333.658 L203.184,332.722 C203.232,330.897991 203.268,328.918011 203.292,326.782 C203.316,324.645989 203.328,322.762008 203.328,321.13 L203.328,317.458 C203.328,315.48999 203.304,313.858006 203.256,312.562 C203.208,311.265994 203.16,309.898007 203.112,308.458 L197.424,307.81 L197.424,305.29 L207.504,300.898 L208.584,301.618 L209.376,310.186 Z M236.448,293.194 C235.055993,293.194 233.904005,292.762004 232.992,291.898 C232.079995,291.033996 231.624,289.930007 231.624,288.586 C231.624,287.193993 232.079995,286.078004 232.992,285.238 C233.904005,284.397996 235.055993,283.978 236.448,283.978 C237.792007,283.978 238.931995,284.397996 239.868,285.238 C240.804005,286.078004 241.272,287.193993 241.272,288.586 C241.272,289.930007 240.804005,291.033996 239.868,291.898 C238.931995,292.762004 237.792007,293.194 236.448,293.194 L236.448,293.194 Z M244.656,333.658 L244.656,336.25 L227.952,336.25 L227.952,333.658 L233.28,332.65 C233.328,330.825991 233.364,328.858011 233.388,326.746 C233.412,324.633989 233.424,322.762008 233.424,321.13 L233.424,317.53 C233.424,315.56199 233.4,313.918007 233.352,312.598 C233.304,311.277993 233.256,309.898007 233.208,308.458 L227.52,307.81 L227.52,305.29 L238.68,300.898 L239.76,301.618 L239.544,311.41 L239.544,321.13 C239.544,322.714008 239.556,324.573989 239.58,326.71 C239.604,328.846011 239.64,330.825991 239.688,332.65 L244.656,333.658 Z M288.36,333.658 L288.36,336.25 L271.656,336.25 L271.656,333.658 L276.984,332.65 C277.032,330.873991 277.068,328.930011 277.092,326.818 C277.116,324.705989 277.128,322.810008 277.128,321.13 L277.128,314.794 C277.128,311.481983 276.672005,309.202006 275.76,307.954 C274.847995,306.705994 273.312011,306.082 271.152,306.082 C269.471992,306.082 267.876008,306.417997 266.364,307.09 C264.851992,307.762003 263.184009,308.865992 261.36,310.402 L261.36,321.13 C261.36,322.714008 261.372,324.573989 261.396,326.71 C261.42,328.846011 261.456,330.825991 261.504,332.65 L266.472,333.658 L266.472,336.25 L249.768,336.25 L249.768,333.658 L255.096,332.65 C255.144,330.825991 255.18,328.858011 255.204,326.746 C255.228,324.633989 255.24,322.762008 255.24,321.13 L255.24,317.458 C255.24,315.48999 255.216,313.858006 255.168,312.562 C255.12,311.265994 255.072,309.898007 255.024,308.458 L249.336,307.81 L249.336,305.29 L259.416,300.898 L260.496,301.618 L261.072,307.45 C262.848009,305.48199 264.875989,303.898006 267.156,302.698 C269.436011,301.497994 271.703989,300.898 273.96,300.898 C277.080016,300.898 279.395992,301.92999 280.908,303.994 C282.420008,306.05801 283.176,309.465976 283.176,314.218 L283.176,321.13 C283.176,322.810008 283.188,324.69399 283.212,326.782 C283.236,328.87001 283.272,330.825991 283.32,332.65 L288.36,333.658 Z M323.496,328.042 C322.487995,331.066015 320.844011,333.369992 318.564,334.954 C316.283989,336.538008 313.440017,337.33 310.032,337.33 C307.583988,337.33 305.36401,336.910004 303.372,336.07 C301.37999,335.229996 299.676007,334.030008 298.26,332.47 C296.843993,330.909992 295.764004,329.014011 295.02,326.782 C294.275996,324.549989 293.904,322.042014 293.904,319.258 C293.904,316.425986 294.359995,313.870011 295.272,311.59 C296.184005,309.309989 297.419992,307.378008 298.98,305.794 C300.540008,304.209992 302.31599,302.998004 304.308,302.158 C306.30001,301.317996 308.375989,300.898 310.536,300.898 C312.168008,300.898 313.703993,301.137998 315.144,301.618 C316.584007,302.098002 317.867994,302.757996 318.996,303.598 C320.124006,304.438004 321.059996,305.421994 321.804,306.55 C322.548004,307.678006 323.039999,308.913993 323.28,310.258 C322.943998,312.082009 321.840009,312.994 319.968,312.994 C318.719994,312.994 317.808003,312.670003 317.232,312.022 C316.655997,311.373997 316.248001,310.546005 316.008,309.538 L314.712,304.786 C314.039997,304.545999 313.368003,304.39 312.696,304.318 C312.023997,304.246 311.400003,304.21 310.824,304.21 C307.751985,304.21 305.22001,305.433988 303.228,307.882 C301.23599,310.330012 300.24,313.881977 300.24,318.538 C300.24,323.098023 301.307989,326.589988 303.444,329.014 C305.580011,331.438012 308.327983,332.65 311.688,332.65 C313.800011,332.65 315.719991,332.170005 317.448,331.21 C319.176009,330.249995 320.591994,328.882009 321.696,327.106 L323.496,328.042 Z M336.672,293.194 C335.279993,293.194 334.128005,292.762004 333.216,291.898 C332.303995,291.033996 331.848,289.930007 331.848,288.586 C331.848,287.193993 332.303995,286.078004 333.216,285.238 C334.128005,284.397996 335.279993,283.978 336.672,283.978 C338.016007,283.978 339.155995,284.397996 340.092,285.238 C341.028005,286.078004 341.496,287.193993 341.496,288.586 C341.496,289.930007 341.028005,291.033996 340.092,291.898 C339.155995,292.762004 338.016007,293.194 336.672,293.194 L336.672,293.194 Z M344.88,333.658 L344.88,336.25 L328.176,336.25 L328.176,333.658 L333.504,332.65 C333.552,330.825991 333.588,328.858011 333.612,326.746 C333.636,324.633989 333.648,322.762008 333.648,321.13 L333.648,317.53 C333.648,315.56199 333.624,313.918007 333.576,312.598 C333.528,311.277993 333.48,309.898007 333.432,308.458 L327.744,307.81 L327.744,305.29 L338.904,300.898 L339.984,301.618 L339.768,311.41 L339.768,321.13 C339.768,322.714008 339.78,324.573989 339.804,326.71 C339.828,328.846011 339.864,330.825991 339.912,332.65 L344.88,333.658 Z M360.936,329.554 C362.280007,330.850006 363.599994,331.785997 364.896,332.362 C366.192006,332.938003 367.511993,333.226 368.856,333.226 C370.200007,333.226 371.471994,332.938003 372.672,332.362 C373.872006,331.785997 374.915996,330.922006 375.804,329.77 C376.692004,328.617994 377.387997,327.178009 377.892,325.45 C378.396003,323.721991 378.648,321.706012 378.648,319.402 C378.648,314.745977 377.808008,311.182012 376.128,308.71 C374.447992,306.237988 372.288013,305.002 369.648,305.002 C368.543994,305.002 367.272007,305.277997 365.832,305.83 C364.391993,306.382003 362.760009,307.425992 360.936,308.962 L360.936,329.554 Z M360.504,306.226 C362.184008,304.401991 363.935991,303.058004 365.76,302.194 C367.584009,301.329996 369.45599,300.898 371.376,300.898 C373.29601,300.898 375.095992,301.305996 376.776,302.122 C378.456008,302.938004 379.907994,304.125992 381.132,305.686 C382.356006,307.246008 383.327996,309.129989 384.048,311.338 C384.768004,313.546011 385.128,316.041986 385.128,318.826 C385.128,321.610014 384.756004,324.141989 384.012,326.422 C383.267996,328.702011 382.224007,330.645992 380.88,332.254 C379.535993,333.862008 377.964009,335.109996 376.164,335.998 C374.363991,336.886004 372.408011,337.33 370.296,337.33 C368.615992,337.33 366.984008,336.994003 365.4,336.322 C363.815992,335.649997 362.256008,334.402009 360.72,332.578 L360.72,338.266 C360.72,340.18601 360.732,342.10599 360.756,344.026 C360.78,345.94601 360.816,347.88999 360.864,349.858 L367.416,350.938 L367.416,353.458 L348.912,353.458 L348.912,350.938 L354.672,349.93 C354.72,347.91399 354.756,345.958009 354.78,344.062 C354.804,342.165991 354.816,340.23401 354.816,338.266 L354.816,317.458 C354.816,315.48999 354.792,313.858006 354.744,312.562 C354.696,311.265994 354.648,309.898007 354.6,308.458 L348.912,307.81 L348.912,305.29 L358.992,300.898 L360.072,301.618 L360.504,306.226 Z M407.304,333.658 L407.304,336.25 L389.448,336.25 L389.448,333.658 L395.208,332.65 C395.256,330.68199 395.292,328.750009 395.316,326.854 C395.34,324.957991 395.352,323.05001 395.352,321.13 L395.352,290.242 L389.448,289.522 L389.448,287.002 L400.68,283.762 L401.688,284.338 L401.4,294.562 L401.4,321.13 C401.4,323.05001 401.412,324.96999 401.436,326.89 C401.46,328.81001 401.496,330.72999 401.544,332.65 L407.304,333.658 Z M432.216,315.73 C433.944009,315.73 435.083997,315.370004 435.636,314.65 C436.188003,313.929996 436.464,313.042005 436.464,311.986 C436.464,310.977995 436.260002,310.006005 435.852,309.07 C435.443998,308.133995 434.892003,307.306004 434.196,306.586 C433.499997,305.865996 432.672005,305.290002 431.712,304.858 C430.751995,304.425998 429.720006,304.21 428.616,304.21 C427.607995,304.21 426.588005,304.413998 425.556,304.822 C424.523995,305.230002 423.564004,305.901995 422.676,306.838 C421.787996,307.774005 421.020003,308.973993 420.372,310.438 C419.723997,311.902007 419.304001,313.66599 419.112,315.73 L432.216,315.73 Z M418.968,318.754 C419.064,323.218022 420.15599,326.649988 422.244,329.05 C424.33201,331.450012 427.127982,332.65 430.632,332.65 C432.936012,332.65 434.855992,332.194005 436.392,331.282 C437.928008,330.369995 439.343994,329.146008 440.64,327.61 L442.368,328.978 C441.023993,331.570013 439.212011,333.609993 436.932,335.098 C434.651989,336.586007 431.856017,337.33 428.544,337.33 C426.095988,337.33 423.88801,336.922004 421.92,336.106 C419.95199,335.289996 418.272007,334.102008 416.88,332.542 C415.487993,330.981992 414.408004,329.098011 413.64,326.89 C412.871996,324.681989 412.488,322.210014 412.488,319.474 C412.488,316.737986 412.931996,314.230011 413.82,311.95 C414.708004,309.669989 415.907992,307.714008 417.42,306.082 C418.932008,304.449992 420.68399,303.178005 422.676,302.266 C424.66801,301.353995 426.791989,300.898 429.048,300.898 C430.920009,300.898 432.671992,301.209997 434.304,301.834 C435.936008,302.458003 437.351994,303.369994 438.552,304.57 C439.752006,305.770006 440.699997,307.233991 441.396,308.962 C442.092003,310.690009 442.44,312.633989 442.44,314.794 C442.44,315.610004 442.392,316.353997 442.296,317.026 C442.2,317.698003 442.080001,318.273998 441.936,318.754 L418.968,318.754 Z M464.328,316.306 C467.928018,317.650007 470.471993,319.185991 471.96,320.914 C473.448007,322.642009 474.192,324.657988 474.192,326.962 C474.192,328.306007 473.904003,329.601994 473.328,330.85 C472.751997,332.098006 471.876006,333.201995 470.7,334.162 C469.523994,335.122005 468.060009,335.889997 466.308,336.466 C464.555991,337.042003 462.528012,337.33 460.224,337.33 C458.20799,337.33 456.360008,337.102002 454.68,336.646 C452.999992,336.189998 451.272009,335.506005 449.496,334.594 L449.208,326.674 L453.168,326.674 L454.536,332.866 C456.216008,333.634004 458.159989,334.018 460.368,334.018 C463.104014,334.018 465.143993,333.514005 466.488,332.506 C467.832007,331.497995 468.504,330.154008 468.504,328.474 C468.504,326.937992 467.952006,325.702005 466.848,324.766 C465.743994,323.829995 464.040012,322.954004 461.736,322.138 L458.424,320.986 C455.783987,320.025995 453.672008,318.766008 452.088,317.206 C450.503992,315.645992 449.712,313.714012 449.712,311.41 C449.712,310.017993 450.011997,308.686006 450.612,307.414 C451.212003,306.141994 452.051995,305.026005 453.132,304.066 C454.212005,303.105995 455.519992,302.338003 457.056,301.762 C458.592008,301.185997 460.31999,300.898 462.24,300.898 C464.20801,300.898 465.995992,301.149997 467.604,301.654 C469.212008,302.158003 470.783992,302.889995 472.32,303.85 L472.032,311.194 L468.288,311.194 L467.136,305.434 C465.503992,304.617996 463.848008,304.21 462.168,304.21 C459.959989,304.21 458.292006,304.677995 457.164,305.614 C456.035994,306.550005 455.472,307.833992 455.472,309.466 C455.472,310.906007 455.963995,312.045996 456.948,312.886 C457.932005,313.726004 459.647988,314.601995 462.096,315.514 L464.328,316.306 Z" id="principles" fill="#F6A623" sketch:type="MSShapeGroup"></path>
            <path d="M261.2,120.25 L253,120.25 L253,202.85 C253,231.45 238,246.65 210.6,246.65 C183.2,246.65 168.2,231.45 168.2,202.85 L168.2,120.25 L160,120.25 L160,204.45 C160,236.85 178.6,254.25 210.6,254.25 C242.6,254.25 261.2,236.85 261.2,204.45 L261.2,120.25 Z M386.6,252.25 L340.8,184.25 L385,120.25 L375.8,120.25 L336.4,177.45 L297.6,120.25 L287.8,120.25 L331,184.45 L283.6,252.25 L293.4,252.25 L335.6,191.05 L377,252.25 L386.6,252.25 Z" id="UX" fill="#547788" sketch:type="MSShapeGroup"></path>
        </g>
    </g>
</svg>