<?xml version="1.0" encoding="UTF-8" standalone="no"?>
<svg width="150px" height="150px" viewBox="0 0 150 150" version="1.1" xmlns="http://www.w3.org/2000/svg" xmlns:xlink="http://www.w3.org/1999/xlink" xmlns:sketch="http://www.bohemiancoding.com/sketch/ns">
    <!-- Generator: Sketch 3.2.2 (9983) - http://www.bohemiancoding.com/sketch -->
    <title>initials</title>
    <desc>Created with Sketch.</desc>
    <defs></defs>
    <g id="Page-1" stroke="none" stroke-width="1" fill="none" fill-rule="evenodd" sketch:type="MSPage">
        <g id="initials" sketch:type="MSArtboardGroup">
            <g id="pigeon" sketch:type="MSLayerGroup" transform="translate(1.000000, 65.000000)" fill="#547788">
                <path d="M25.0759665,3.16803797 C41.8290173,15.2874684 62.441971,21.0034177 78.1094241,34.7944937 C87.2230838,41.8720253 93.6428529,51.8210127 98.360512,62.2553165 C91.5118648,56.6067722 84.9044615,49.7314557 75.8444117,48.0058861 C70.8453013,47.4531646 65.7121665,47.2913924 60.7130562,48.0328481 C55.4056897,49.6370886 49.9540692,53.870125 45.4240442,56.984239 L45.4240442,72.3525941 L43.5448691,72.3525941 C43.5448691,72.3525941 43.3008554,59.1828656 43.2836443,56.984239 C39.8258146,57.065125 35.6456652,57.1325303 32.201238,57.3347455 C32.4290795,61.9048088 32.629144,72.3525941 32.629144,72.3525941 L30.6574901,72.3525941 C30.6574901,72.3525941 30.3792817,60.8497894 30.1511504,57.3347455 C23.7581862,54.1262645 17.0479045,50.3785443 14.1261725,43.4627848 C9.44872066,35.6437975 12.866343,26.0318354 9.24768405,17.9162658 C7.59918385,14.1820253 3.56504921,12.5912658 0.40207322,10.4612658 C2.96193938,7.10449367 5.53520799,3.35677215 9.58274507,1.71208861 C14.568453,-0.323544304 20.6263562,-0.040443038 25.0759665,3.16803797 Z" id="Shape-2" sketch:type="MSShapeGroup"></path>
            </g>
            <path d="M98.7,29.478 L73.466,58.486 L84.27,58.486 C86.1940096,58.486 87.7726605,58.3256683 89.006,58.005 C90.2393395,57.6843317 91.2259963,57.1170041 91.966,56.303 C92.7060037,55.4889959 93.2856646,54.3666738 93.705,52.936 C94.1243354,51.5053262 94.4819985,49.6800111 94.778,47.46 L99.144,47.904 L98.626,63 L60.886,63 L60.886,58.856 L86.638,29.922 L76.056,29.922 C74.4279919,29.922 73.0713388,30.0576653 71.986,30.329 C70.9006612,30.6003347 70.0003369,31.1183295 69.285,31.883 C68.5696631,32.6476705 68.0023354,33.7083265 67.583,35.065 C67.1636646,36.4216735 66.7813351,38.1853225 66.436,40.356 L62.292,39.986 L62.292,25.334 L98.7,25.334 L98.7,29.478 Z M137.476,38.876 L133.11,39.394 C132.567331,35.9406494 131.124345,33.3753417 128.781,31.698 C126.437655,30.0206583 123.490018,29.182 119.938,29.182 C117.86599,29.182 116.188673,29.5889959 114.906,30.403 C113.623327,31.2170041 112.982,32.3146598 112.982,33.696 C112.982,35.2746746 113.63566,36.4463295 114.943,37.211 C116.25034,37.9756705 117.878324,38.6046642 119.827,39.098 C121.775676,39.5913358 123.884655,40.0476646 126.154,40.467 C128.423345,40.8863354 130.532324,41.5153291 132.481,42.354 C134.429676,43.1926709 136.05766,44.3643258 137.365,45.869 C138.67234,47.3736742 139.326,49.4333203 139.326,52.048 C139.326,53.922676 138.98067,55.5753262 138.29,57.006 C137.59933,58.4366738 136.625006,59.6329952 135.367,60.595 C134.108994,61.5570048 132.616675,62.272331 130.89,62.741 C129.163325,63.209669 127.26401,63.444 125.192,63.444 C122.231985,63.444 119.79001,63.1973358 117.866,62.704 C115.94199,62.2106642 114.314007,61.495338 112.982,60.558 C112.636665,60.3606657 112.279002,60.1633343 111.909,59.966 C111.538998,59.7686657 111.181335,59.67 110.836,59.67 C110.737333,59.67 110.466002,59.9536638 110.022,60.521 C109.577998,61.0883362 109.257334,61.9146612 109.06,63 L104.768,63 L104.768,48.792 L109.06,48.348 C109.306668,50.0253417 109.886329,51.5299933 110.799,52.862 C111.711671,54.1940067 112.846327,55.3163288 114.203,56.229 C115.559673,57.1416712 117.088991,57.8446642 118.791,58.338 C120.493009,58.8313358 122.231991,59.078 124.008,59.078 C126.376012,59.078 128.164327,58.5970048 129.373,57.635 C130.581673,56.6729952 131.186,55.4766738 131.186,54.046 C131.186,52.516659 130.53234,51.3696705 129.225,50.605 C127.91766,49.8403295 126.289676,49.2113358 124.341,48.718 C122.392324,48.2246642 120.283345,47.7560022 118.014,47.312 C115.744655,46.8679978 113.635676,46.2143377 111.687,45.351 C109.738324,44.4876623 108.11034,43.291341 106.803,41.762 C105.49566,40.232659 104.842,38.1360133 104.842,35.472 C104.842,32.067983 106.025988,29.4040096 108.394,27.48 C110.762012,25.5559904 114.116645,24.594 118.458,24.594 C120.727345,24.594 122.82399,24.9146635 124.748,25.556 C126.67201,26.1973365 128.225994,26.8633299 129.41,27.554 C129.804669,27.8006679 130.174665,28.0103325 130.52,28.183 C130.865335,28.3556675 131.210665,28.442 131.556,28.442 C131.704001,28.442 131.975331,28.1706694 132.37,27.628 C132.764669,27.0853306 133.085332,26.3206716 133.332,25.334 L137.476,25.334 L137.476,38.876 Z" id="zs" fill="#F6A623" sketch:type="MSShapeGroup"></path>
        </g>
    </g>
</svg>