<?xml version="1.0" encoding="UTF-8" standalone="no"?>
<svg width="800px" height="150px" viewBox="0 0 800 150" version="1.1" xmlns="http://www.w3.org/2000/svg" xmlns:xlink="http://www.w3.org/1999/xlink" xmlns:sketch="http://www.bohemiancoding.com/sketch/ns">
    <!-- Generator: Sketch 3.2.2 (9983) - http://www.bohemiancoding.com/sketch -->
    <title>nameplate</title>
    <desc>Created with Sketch.</desc>
    <defs></defs>
    <g id="Page-1" stroke="none" stroke-width="1" fill="none" fill-rule="evenodd" sketch:type="MSPage">
        <g id="nameplate" sketch:type="MSArtboardGroup">
            <g id="pigeon" sketch:type="MSLayerGroup" transform="translate(586.480620, 9.256329)" fill="#547788">
                <path d="M25.0759665,3.16803797 C41.8290173,15.2874684 62.441971,21.0034177 78.1094241,34.7944937 C87.2230838,41.8720253 93.6428529,51.8210127 98.360512,62.2553165 C91.5118648,56.6067722 84.9044615,49.7314557 75.8444117,48.0058861 C70.8453013,47.4531646 65.7121665,47.2913924 60.7130562,48.0328481 C55.4056897,49.6370886 49.9540692,53.870125 45.4240442,56.984239 L45.4240442,72.3525941 L43.5448691,72.3525941 C43.5448691,72.3525941 43.3008554,59.1828656 43.2836443,56.984239 C39.8258146,57.065125 35.6456652,57.1325303 32.201238,57.3347455 C32.4290795,61.9048088 32.629144,72.3525941 32.629144,72.3525941 L30.6574901,72.3525941 C30.6574901,72.3525941 30.3792817,60.8497894 30.1511504,57.3347455 C23.7581862,54.1262645 17.0479045,50.3785443 14.1261725,43.4627848 C9.44872066,35.6437975 12.866343,26.0318354 9.24768405,17.9162658 C7.59918385,14.1820253 3.56504921,12.5912658 0.40207322,10.4612658 C2.96193938,7.10449367 5.53520799,3.35677215 9.58274507,1.71208861 C14.568453,-0.323544304 20.6263562,-0.040443038 25.0759665,3.16803797 Z" id="Shape-2" sketch:type="MSShapeGroup"></path>
            </g>
            <path d="M61.1237595,85.9564304 L21.3670286,131.659183 L38.388972,131.659183 C41.4202922,131.659183 43.9074919,131.406576 45.8506458,130.901356 C47.7937998,130.396136 49.3482996,129.502299 50.514192,128.219817 C51.6800844,126.937336 52.593353,125.169092 53.2540253,122.915034 C53.9146977,120.660975 54.4782039,117.78515 54.9445608,114.287473 L61.8232914,114.987005 L61.0071708,138.77109 L1.54695749,138.77109 L1.54695749,132.242126 L42.1198089,86.6559624 L25.4476315,86.6559624 C22.8826683,86.6559624 20.745231,86.8697061 19.0352555,87.2971999 C17.3252801,87.7246938 15.906799,88.5408062 14.7797697,89.7455617 C13.6527404,90.9503171 12.758903,92.6214044 12.0982306,94.7588738 C11.4375583,96.8963431 10.8351896,99.6750116 10.2911065,103.094963 L3.76214191,102.512019 L3.76214191,79.4274658 L61.1237595,79.4274658 L61.1237595,85.9564304 Z M129.794476,127.345402 C129.794476,130.765353 130.960351,132.475303 133.292136,132.475303 C134.380302,132.475303 135.196415,131.95066 135.740498,130.901356 C136.284581,129.852053 136.556618,128.666747 136.556618,127.345402 L136.556618,120.466672 L142.036285,120.466672 L142.036285,125.713161 C142.036285,128.278124 141.725385,130.454424 141.103576,132.242126 C140.481767,134.029828 139.587929,135.46774 138.422037,136.555906 C137.256144,137.644072 135.876526,138.421322 134.28314,138.887679 C132.689753,139.354036 130.960372,139.587211 129.094944,139.587211 C126.996338,139.587211 125.208663,139.25688 123.731866,138.596208 C122.255069,137.935535 121.01147,137.061129 120.00103,135.972963 C118.990589,134.884797 118.21334,133.641197 117.669256,132.242126 C117.125173,130.843055 116.697686,129.36628 116.386781,127.811757 C115.531794,129.521733 114.346487,131.153957 112.830827,132.708481 C111.315167,134.263004 109.508061,135.642622 107.409455,136.847378 C105.310849,138.052133 102.940236,139.004264 100.297547,139.7038 C97.6548577,140.403335 94.8178955,140.753098 91.7865753,140.753098 C84.4803165,140.753098 79.1367233,139.256892 75.7556355,136.264434 C72.3745476,133.271977 70.6840291,129.210847 70.6840291,124.08092 C70.6840291,120.971874 71.2863977,118.387518 72.4911532,116.327775 C73.6959086,114.268032 75.366996,112.53865 77.5044653,111.13958 C79.6419346,109.740509 82.1291344,108.632928 84.9661391,107.816803 C87.8031439,107.000678 90.8344185,106.262291 94.0600541,105.601619 C97.2856896,104.940946 100.627864,104.299715 104.086678,103.677906 C107.545492,103.056097 110.984823,102.278847 114.404774,101.346133 L114.404774,97.7318844 C114.404774,95.7887305 114.152168,93.9621932 113.646948,92.2522177 C113.141728,90.5422423 112.325615,89.0460362 111.198586,87.7635546 C110.071557,86.481073 108.653076,85.4706481 106.9431,84.7322496 C105.233125,83.9938511 103.212275,83.6246574 100.88049,83.6246574 C96.9164563,83.6246574 93.5937129,84.0132823 90.9121604,84.7905439 C88.230608,85.5678055 86.0737395,86.6170929 84.4414902,87.9384375 C86.2291918,88.0938899 87.7448291,88.6768273 88.9884477,89.6872673 C90.2320662,90.6977074 90.8538661,92.1356197 90.8538661,94.0010475 C90.8538661,96.1773799 90.1543412,97.9456235 88.7552704,99.3058313 C87.3561995,100.666039 85.2964872,101.346133 82.5760717,101.346133 C79.8556562,101.346133 77.8153752,100.627177 76.4551674,99.1892426 C75.0949596,97.7513087 74.414866,95.7498902 74.414866,93.184927 C74.414866,91.241773 75.0366659,89.2986482 76.2802844,87.3554943 C77.5239029,85.4123403 79.3115778,83.6829593 81.6433625,82.1672992 C83.9751472,80.6516391 86.8704032,79.4274705 90.3292172,78.4947566 C93.7880312,77.5620427 97.7325745,77.0956928 102.162966,77.0956928 C105.738369,77.0956928 109.197131,77.426024 112.539356,78.0866963 C115.88158,78.7473687 118.83513,79.874381 121.400093,81.4677673 C123.965057,83.0611535 126.005338,85.2374533 127.520998,87.9967319 C129.036658,90.7560105 129.794476,94.2342038 129.794476,98.4314164 L129.794476,127.345402 Z M114.521363,105.89309 C109.546889,107.136709 105.233152,108.283152 101.580022,109.332455 C97.9268928,110.381759 94.8956182,111.508771 92.4861073,112.713526 C90.0765964,113.918282 88.2889216,115.2979 87.1230292,116.852424 C85.9571368,118.406947 85.3741994,120.350072 85.3741994,122.681856 C85.3741994,125.479998 86.3457618,127.656298 88.2889157,129.210821 C90.2320697,130.765344 93.1856194,131.542594 97.1496534,131.542594 C101.113687,131.542594 104.630743,130.590463 107.700927,128.686172 C110.77111,126.781881 113.044566,124.58615 114.521363,122.098913 L114.521363,105.89309 Z M208.958172,118.484665 C208.491815,121.282806 207.656272,124.003181 206.451516,126.645871 C205.246761,129.28856 203.595105,131.659172 201.496498,133.757778 C199.397892,135.856385 196.794105,137.546903 193.685059,138.829385 C190.576012,140.111866 186.884075,140.753098 182.609136,140.753098 C177.945567,140.753098 173.651261,140.131298 169.72609,138.887679 C165.800919,137.644061 162.419882,135.75923 159.582877,133.233129 C156.745873,130.707029 154.53071,127.500873 152.937324,123.614566 C151.343938,119.728258 150.547257,115.103621 150.547257,109.740516 C150.547257,99.4029368 153.384219,91.3778314 159.058228,85.6649588 C164.732238,79.9520862 172.582462,77.0956928 182.609136,77.0956928 C186.339992,77.0956928 189.759892,77.5231802 192.868938,78.3781679 C195.977984,79.2331557 198.678928,80.4184618 200.971849,81.9341219 C203.264771,83.449782 205.052446,85.2374568 206.334927,87.2971999 C207.617409,89.3569431 208.25864,91.5915366 208.25864,94.0010475 C208.25864,96.4882846 207.559115,98.5285656 206.160044,100.121952 C204.760974,101.715338 202.701261,102.512019 199.980846,102.512019 C197.415883,102.512019 195.433895,101.793063 194.034825,100.355129 C192.635754,98.9171952 191.936229,97.1878142 191.936229,95.1669341 C191.936229,93.3792324 192.57746,91.8441638 193.859942,90.5616822 C195.142423,89.2792006 196.716354,88.5602445 198.581782,88.4047922 C197.260437,86.9279952 195.569919,85.7621203 193.510176,84.9071325 C191.450432,84.0521448 188.671764,83.6246574 185.174087,83.6246574 C179.111447,83.6246574 174.467378,85.6455071 171.241743,89.6872673 C168.016107,93.7290275 166.403314,99.7527144 166.403314,107.758509 C166.403314,112.266626 166.850232,116.133444 167.744083,119.35908 C168.637934,122.584715 169.900965,125.207934 171.533214,127.228814 C173.165464,129.249694 175.089157,130.7459 177.304353,131.717477 C179.519548,132.689054 181.909592,133.174835 184.474555,133.174835 C186.495435,133.174835 188.457991,132.883366 190.362282,132.30042 C192.266573,131.717474 193.995954,130.804205 195.550477,129.560587 C197.105,128.316968 198.406894,126.723606 199.456197,124.780452 C200.5055,122.837298 201.224456,120.466686 201.613087,117.668544 L208.958172,118.484665 Z M244.051357,91.3195085 C247.004951,87.5109268 250.599732,84.3824958 254.835807,81.9341219 C259.071883,79.4857479 264.026851,78.2615793 269.700861,78.2615793 C275.530323,78.2615793 279.960647,79.6217667 282.991967,82.3421822 C286.023287,85.0625977 287.538925,89.4929222 287.538925,95.6332887 L287.538925,126.879048 C287.538925,130.376725 290.919962,132.125537 297.682138,132.125537 L297.682138,138.77109 L263.754839,138.77109 L263.754839,132.125537 C268.962492,132.125537 271.566279,130.376725 271.566279,126.879048 L271.566279,100.763189 C271.566279,95.8664415 270.905617,92.3688169 269.584272,90.2702106 C268.262927,88.1716044 266.28094,87.122317 263.638251,87.122317 C261.617371,87.122317 259.654815,87.5109419 257.750524,88.2882035 C255.846233,89.0654651 254.019696,90.153615 252.270857,91.5526858 C250.522018,92.9517566 248.948087,94.6034127 247.549017,96.5077036 C246.149946,98.4119944 244.984071,100.452275 244.051357,102.628608 L244.051357,126.879048 C244.051357,130.376725 246.655144,132.125537 251.862797,132.125537 L251.862797,138.77109 L218.052087,138.77109 L218.052087,132.125537 C224.736537,132.125537 228.078711,130.376725 228.078711,126.879048 L228.078711,60.8898699 C228.078711,57.3921928 224.775399,55.6433805 218.168676,55.6433805 L218.168676,48.9978272 L244.051357,48.9978272 L244.051357,91.3195085 Z M398.414734,100.763189 L391.536004,101.57931 C390.681016,96.138479 388.40756,92.0967794 384.715567,89.45409 C381.023575,86.8114007 376.379507,85.4900758 370.783223,85.4900758 C367.518725,85.4900758 364.876075,86.131307 362.855195,87.4137886 C360.834315,88.6962702 359.82389,90.4256513 359.82389,92.6019837 C359.82389,95.0892207 360.853746,96.9351893 362.913489,98.1399447 C364.973232,99.3447002 367.538157,100.335694 370.60834,101.112955 C373.678524,101.890217 377.001267,102.609173 380.57667,103.269845 C384.152073,103.930518 387.474817,104.921511 390.545,106.242856 C393.615183,107.564201 396.180108,109.410169 398.239851,111.780817 C400.299594,114.151465 401.329451,117.396483 401.329451,121.51597 C401.329451,124.469564 400.785376,127.073351 399.697209,129.32741 C398.609043,131.581468 397.073975,133.466299 395.091958,134.981959 C393.109941,136.497619 390.75876,137.624632 388.038344,138.36303 C385.317929,139.101429 382.325516,139.470622 379.061018,139.470622 C374.397448,139.470622 370.550061,139.081997 367.518741,138.304736 C364.487421,137.527474 361.922496,136.400462 359.82389,134.923665 C359.279807,134.61276 358.716301,134.30186 358.133354,133.990956 C357.550408,133.680051 356.986902,133.524601 356.442819,133.524601 C356.287367,133.524601 355.859879,133.97152 355.160344,134.865371 C354.460808,135.759221 353.955596,137.061115 353.644691,138.77109 L346.882549,138.77109 L346.882549,116.386069 L353.644691,115.686537 C354.033322,118.329226 354.946591,120.699839 356.384525,122.798445 C357.822459,124.897051 359.610133,126.665295 361.747603,128.103229 C363.885072,129.541163 366.294547,130.648744 368.976099,131.426005 C371.657652,132.203267 374.397458,132.591892 377.195599,132.591892 C380.926455,132.591892 383.743986,131.834073 385.648277,130.318413 C387.552568,128.802753 388.504699,126.917922 388.504699,124.663863 C388.504699,122.254353 387.474843,120.447246 385.415099,119.242491 C383.355356,118.037736 380.790431,117.046742 377.720248,116.26948 C374.650065,115.492219 371.327322,114.753831 367.751918,114.054296 C364.176515,113.354761 360.853772,112.324904 357.783588,110.964697 C354.713405,109.604489 352.14848,107.719658 350.088737,105.310147 C348.028994,102.900636 346.999138,99.5973239 346.999138,95.4001114 C346.999138,90.0370065 348.864538,85.8398569 352.595393,82.8085368 C356.326249,79.7772166 361.611548,78.2615793 368.45145,78.2615793 C372.026854,78.2615793 375.330166,78.7667917 378.361486,79.7772318 C381.392806,80.7876718 383.841143,81.8369592 385.706571,82.9251254 C386.32838,83.3137562 386.911318,83.6440874 387.455401,83.916129 C387.999484,84.1881705 388.543559,84.3241893 389.087642,84.3241893 C389.32082,84.3241893 389.748308,83.8967018 390.370117,83.0417141 C390.991926,82.1867264 391.497139,80.981989 391.88577,79.4274658 L398.414734,79.4274658 L398.414734,100.763189 Z M436.655813,79.4274658 L452.162104,79.4274658 L451.57916,87.8218489 C449.402828,87.3554919 447.090509,87.0251607 444.642135,86.8308453 C442.193761,86.6365299 439.53168,86.5393737 436.655813,86.5393737 L436.655813,127.228814 C436.655813,130.726491 438.365762,132.475303 441.785713,132.475303 C443.573415,132.475303 444.797584,131.989522 445.458256,131.017945 C446.118928,130.046368 446.449259,128.783337 446.449259,127.228814 L446.449259,120.466672 L452.162104,120.466672 L452.162104,125.596573 C452.162104,127.695179 451.94836,129.599441 451.520866,131.309417 C451.093372,133.019392 450.316122,134.476736 449.189093,135.681491 C448.062064,136.886247 446.565857,137.838378 444.70043,138.537913 C442.835002,139.237449 440.46439,139.587211 437.588522,139.587211 C431.525882,139.587211 427.192713,138.227024 424.588887,135.506608 C421.985061,132.786193 420.683167,128.977668 420.683167,124.08092 L420.683167,86.5393737 L410.539954,86.5393737 L410.539954,80.9431183 C412.716287,80.787666 414.756568,80.476766 416.660859,80.0104091 C418.565149,79.5440522 420.236237,78.7279397 421.674171,77.5620474 C423.112105,76.396155 424.239117,74.7639302 425.055242,72.6653239 C425.871366,70.5667177 426.279422,67.846343 426.279422,64.5041182 L426.279422,61.9391678 L436.655813,61.1230472 L436.655813,79.4274658 Z M477.112075,108.224863 C477.267528,116.230658 478.744303,122.390363 481.542444,126.704165 C484.340586,131.017967 488.576598,133.174835 494.250607,133.174835 C498.680998,133.174835 502.606111,132.086685 506.026061,129.910353 C509.446012,127.73402 511.816625,124.197533 513.137969,119.300785 L520.366466,120.699849 C519.66693,123.264812 518.637074,125.752012 517.276867,128.161523 C515.916659,130.571034 514.148415,132.708471 511.972083,134.573899 C509.79575,136.439327 507.172532,137.935533 504.102349,139.062562 C501.032165,140.189591 497.437385,140.753098 493.317898,140.753098 C489.276138,140.753098 485.351026,140.267316 481.542444,139.295739 C477.733862,138.324162 474.333394,136.633644 471.340937,134.224133 C468.34848,131.814622 465.939005,128.569604 464.112441,124.48898 C462.285876,120.408357 461.372607,115.259076 461.372607,109.040984 C461.372607,104.299688 462.091563,99.9665199 463.529497,96.041349 C464.967431,92.116178 467.046575,88.7545721 469.76699,85.9564304 C472.487406,83.1582888 475.810149,80.981989 479.73532,79.4274658 C483.660491,77.8729427 488.149109,77.0956928 493.20131,77.0956928 C512.788301,77.0956928 522.58165,87.4719792 522.58165,108.224863 L477.112075,108.224863 Z M508.124657,102.045665 C508.124657,99.4807014 507.813757,97.0906579 507.191948,94.8754624 C506.570139,92.6602669 505.637439,90.7171421 504.39382,89.0460297 C503.150202,87.3749174 501.615133,86.0535925 499.788568,85.0820155 C497.962004,84.1104386 495.843998,83.6246574 493.434487,83.6246574 C489.237274,83.6246574 485.661925,85.0625697 482.708331,87.9384375 C479.754737,90.8143054 477.967062,95.5166674 477.345253,102.045665 L508.124657,102.045665 Z M557.674835,126.879048 C557.519383,130.376725 560.90042,132.125537 567.818048,132.125537 L567.818048,138.77109 L531.675565,138.77109 L531.675565,132.125537 C538.360015,132.125537 541.702189,130.376725 541.702189,126.879048 L541.702189,91.4360971 C541.702189,87.8606939 538.360015,86.0730191 531.675565,86.0730191 L531.675565,79.4274658 L557.674835,79.4274658 L557.674835,126.879048 Z M559.073899,59.840572 C559.073899,62.5609875 558.121768,64.9121686 556.217477,66.8941856 C554.313186,68.8762026 551.962005,69.8671962 549.163863,69.8671962 C547.764792,69.8671962 546.462899,69.5951588 545.258143,69.0510757 C544.053388,68.5069926 543.004101,67.7880364 542.11025,66.8941856 C541.216399,66.0003348 540.497443,64.9510474 539.95336,63.7462919 C539.409277,62.5415365 539.137239,61.2396429 539.137239,59.840572 C539.137239,57.0424304 540.128233,54.6912494 542.11025,52.7869585 C544.092267,50.8826676 546.443448,49.9305365 549.163863,49.9305365 C551.884279,49.9305365 554.216029,50.9020989 556.159182,52.8452528 C558.102336,54.7884068 559.073899,57.1201565 559.073899,59.840572 L559.073899,59.840572 Z M647.448098,126.879048 C647.448098,130.376725 650.867998,132.125537 657.7079,132.125537 L657.7079,138.77109 L623.780602,138.77109 L623.780602,132.125537 C628.988254,132.125537 631.592041,130.376725 631.592041,126.879048 L631.592041,100.996367 C631.592041,96.0996188 630.814791,92.6019942 629.260268,90.5033879 C627.705745,88.4047817 625.60717,87.3554943 622.964481,87.3554943 C620.943601,87.3554943 618.942182,87.7441192 616.960165,88.5213808 C614.978148,89.2986424 613.093317,90.3867923 611.305616,91.7858631 C609.517914,93.1849339 607.885689,94.83659 606.408892,96.7408809 C604.932095,98.6451717 603.727358,100.685453 602.794644,102.861785 L602.794644,126.879048 C602.794644,130.376725 605.398431,132.125537 610.606084,132.125537 L610.606084,138.77109 L576.795374,138.77109 L576.795374,132.125537 C583.479824,132.125537 586.821998,130.376725 586.821998,126.879048 L586.821998,91.3195085 C586.821998,87.8218314 583.479824,86.0730191 576.795374,86.0730191 L576.795374,79.4274658 L602.794644,79.4274658 L602.794644,91.3195085 C605.748238,87.5109268 609.440175,84.3824958 613.870566,81.9341219 C618.300957,79.4857479 623.353081,78.2615793 629.027091,78.2615793 C634.856553,78.2615793 639.384034,79.6217667 642.609669,82.3421822 C645.835305,85.0625977 647.448098,89.4929222 647.448098,95.6332887 L647.448098,126.879048 Z M682.891049,108.224863 C683.046501,116.230658 684.523276,122.390363 687.321418,126.704165 C690.119559,131.017967 694.355571,133.174835 700.029581,133.174835 C704.459972,133.174835 708.385084,132.086685 711.805035,129.910353 C715.224986,127.73402 717.595598,124.197533 718.916943,119.300785 L726.145439,120.699849 C725.445904,123.264812 724.416048,125.752012 723.05584,128.161523 C721.695632,130.571034 719.927389,132.708471 717.751056,134.573899 C715.574724,136.439327 712.951505,137.935533 709.881322,139.062562 C706.811139,140.189591 703.216358,140.753098 699.096872,140.753098 C695.055112,140.753098 691.129999,140.267316 687.321418,139.295739 C683.512836,138.324162 680.112368,136.633644 677.119911,134.224133 C674.127453,131.814622 671.717979,128.569604 669.891414,124.48898 C668.064849,120.408357 667.151581,115.259076 667.151581,109.040984 C667.151581,104.299688 667.870537,99.9665199 669.308471,96.041349 C670.746405,92.116178 672.825548,88.7545721 675.545964,85.9564304 C678.266379,83.1582888 681.589123,80.981989 685.514294,79.4274658 C689.439465,77.8729427 693.928083,77.0956928 698.980283,77.0956928 C718.567275,77.0956928 728.360624,87.4719792 728.360624,108.224863 L682.891049,108.224863 Z M713.903631,102.045665 C713.903631,99.4807014 713.592731,97.0906579 712.970922,94.8754624 C712.349112,92.6602669 711.416412,90.7171421 710.172794,89.0460297 C708.929175,87.3749174 707.394107,86.0535925 705.567542,85.0820155 C703.740977,84.1104386 701.622971,83.6246574 699.21346,83.6246574 C695.016248,83.6246574 691.440898,85.0625697 688.487304,87.9384375 C685.53371,90.8143054 683.746035,95.5166674 683.124226,102.045665 L713.903631,102.045665 Z M763.453809,90.5033879 C765.707867,86.0729969 768.447673,82.866841 771.673309,80.884824 C774.898944,78.902807 778.377138,77.9118133 782.107993,77.9118133 C783.817969,77.9118133 785.586212,78.1838508 787.412777,78.7279339 C789.239342,79.272017 790.890998,80.1269919 792.367795,81.2928843 C793.844592,82.4587767 795.049329,83.9549827 795.982043,85.7815474 C796.914757,87.6081122 797.381107,89.7649807 797.381107,92.2522177 C797.381107,95.2058117 796.584426,97.6347177 794.991039,99.5390086 C793.397653,101.443299 791.240785,102.395431 788.520369,102.395431 C785.799954,102.395431 783.740241,101.676474 782.34117,100.23854 C780.9421,98.8006066 780.242575,97.0712255 780.242575,95.0503454 C780.242575,93.1071915 780.883806,91.4749666 782.166287,90.153622 C783.448769,88.8322773 785.411325,88.1327524 788.054014,88.0550262 C787.432205,86.8891338 786.42178,85.9952964 785.022709,85.3734872 C783.623639,84.7516779 782.146864,84.4407779 780.592341,84.4407779 C779.19327,84.4407779 777.697064,84.7905404 776.103677,85.4900758 C774.510291,86.1896112 772.955791,87.2388986 771.440131,88.6379695 C769.924471,90.0370403 768.467128,91.8441464 767.068057,94.0593419 C765.668986,96.2745373 764.464249,98.8977558 763.453809,101.929076 L763.453809,126.879048 C763.453809,128.666749 764.425371,129.988074 766.368525,130.843062 C768.311679,131.69805 771.148641,132.125537 774.879497,132.125537 L774.879497,138.77109 L737.454539,138.77109 L737.454539,132.125537 C744.138988,132.125537 747.481163,130.376725 747.481163,126.879048 L747.481163,91.3195085 C747.481163,87.8218314 744.138988,86.0730191 737.454539,86.0730191 L737.454539,79.4274658 L763.453809,79.4274658 L763.453809,90.5033879 Z" id="zach-steiner" fill="#F6A623" sketch:type="MSShapeGroup"></path>
        </g>
    </g>
</svg>